<?xml version="1.0" ?><!DOCTYPE svg  PUBLIC '-//W3C//DTD SVG 1.1//EN'  'http://www.w3.org/Graphics/SVG/1.1/DTD/svg11.dtd'>
<svg enable-background="new 0 0 512 512" id="Layer_1" version="1.1" viewBox="0 0 512 512" xml:space="preserve" xmlns="http://www.w3.org/2000/svg" xmlns:xlink="http://www.w3.org/1999/xlink">
  <style>
    svg:hover * {
      fill: #e52e5c;
    }

    path, circle {
      fill: #6A6E7C;
    }
  </style>
  <path d="M256,488.2c-4.1,0-7.9-1.6-10.8-4.5L41.9,278.4C14.8,250,0,213,0,174.1C0,91.2,67.1,23.8,149.6,23.8  c40.6,0,78.4,16,106.4,44.5c28-28.5,65.8-44.5,106.4-44.5c82.5,0,149.6,67.4,149.6,150.3c0,41.2-16.2,79.6-45.8,108.1L266.8,483.7  C263.9,486.6,260.1,488.2,256,488.2z M149.6,54.2C83.9,54.2,30.4,108,30.4,174.1c0,31.1,11.8,60.6,33.3,83.1L256,451.4l188.9-190.8  c23.8-23,36.8-53.6,36.8-86.5c0-66.1-53.5-119.9-119.3-119.9c-37.2,0-71.6,16.9-94.3,46.5c-5.8,7.5-18.3,7.5-24.1,0  C221.2,71.1,186.9,54.2,149.6,54.2z" fill="#6A6E7C"/>
</svg>
