<?xml version="1.0" ?><!DOCTYPE svg  PUBLIC '-//W3C//DTD SVG 1.1//EN'  'http://www.w3.org/Graphics/SVG/1.1/DTD/svg11.dtd'>
<svg enable-background="new 0 0 512 512" id="Layer_1" version="1.1" viewBox="0 0 512 512" xml:space="preserve" xmlns="http://www.w3.org/2000/svg" xmlns:xlink="http://www.w3.org/1999/xlink">
  <style>
    svg:hover * {
      fill: #e52e5c;
    }
  </style>
  <path d="M409.7,307.4c-35.2,0-66.3,17.9-84.7,45.1L199.6,286c3-9.5,5-19.5,5-30c0-15.3-3.6-29.8-9.7-42.9l123.6-65.6  c16.8,33.6,51.2,57,91.2,57c56.4,0,102.3-45.9,102.3-102.3S466.1,0,409.7,0c-56.4,0-102.3,45.9-102.3,102.3c0,5.5,0.8,10.7,1.6,15.9  l-131.1,69.5c-18.7-20.7-45.6-34-75.6-34C45.9,153.7,0,199.6,0,256s45.9,102.3,102.3,102.3c35.1,0,66.1-17.8,84.5-44.8  c34.3,18,94.5,49.5,125.8,65.6c-3.1,9.7-5.2,19.9-5.2,30.7c0,56.4,45.9,102.3,102.3,102.3c56.4,0,102.3-45.9,102.3-102.3  S466.1,307.4,409.7,307.4z M409.7,30.4c39.7,0,71.9,32.3,71.9,71.9s-32.3,71.9-71.9,71.9s-71.9-32.3-71.9-71.9S370,30.4,409.7,30.4z   M102.3,327.9c-39.7,0-71.9-32.3-71.9-71.9s32.3-71.9,71.9-71.9s71.9,32.3,71.9,71.9S141.9,327.9,102.3,327.9z M409.7,481.6  c-39.7,0-71.9-32.3-71.9-71.9s32.3-71.9,71.9-71.9s71.9,32.3,71.9,71.9S449.4,481.6,409.7,481.6z" fill="#6A6E7C"/>
</svg>
